<svg width="180" height="40" viewBox="0 0 180 40" fill="none" xmlns="http://www.w3.org/2000/svg">
  <!-- Logo Icon -->
  <rect width="40" height="40" rx="8" fill="url(#logo-gradient-dark)"/>
  <path d="M20 8C16.13 8 13 11.13 13 15C13 20.25 20 28 20 28S27 20.25 27 15C27 11.13 23.87 8 20 8ZM20 18.5C18.62 18.5 17.5 17.38 17.5 16C17.5 14.62 18.62 13.5 20 13.5C21.38 13.5 22.5 14.62 22.5 16C22.5 17.38 21.38 18.5 20 18.5Z" fill="white"/>
  
  <!-- Brand Text -->
  <text x="50" y="16" font-family="Inter, system-ui, sans-serif" font-size="14" font-weight="700" fill="#F8FAFC">
    Basemap
  </text>
  <text x="50" y="32" font-family="Inter, system-ui, sans-serif" font-size="12" font-weight="500" fill="#CBD5E1">
    Style Editor
  </text>
  
  <defs>
    <linearGradient id="logo-gradient-dark" x1="0" y1="0" x2="40" y2="40">
      <stop offset="0%" stop-color="#3B82F6"/>
      <stop offset="100%" stop-color="#10B981"/>
    </linearGradient>
  </defs>
</svg>